<svg xmlns="http://www.w3.org/2000/svg" width="35" height="44" viewBox="0 0 35 44">
  <defs>
    <style>
      .cls-1 {
        fill: #008384;
        fill-rule: evenodd;
      }
    </style>
  </defs>
  <path id="Фигура_64" data-name="Фигура 64" class="cls-1" d="M34.443,11.9L24.726,0.958a2.187,2.187,0,0,0-1.62-.722H5.6A5.536,5.536,0,0,0,0,5.705H0V38.53A5.536,5.536,0,0,0,5.6,44H29.41a5.537,5.537,0,0,0,5.6-5.47V13.366A2.195,2.195,0,0,0,34.443,11.9Zm-23.5,10.219h6.565a2.188,2.188,0,1,1,0,4.376H10.941A2.188,2.188,0,1,1,10.941,22.118ZM24.07,35.247H10.941a2.188,2.188,0,1,1,0-4.376H24.07A2.188,2.188,0,1,1,24.07,35.247ZM23.436,13.366a1.729,1.729,0,0,1-1.554-1.86V4.613l8.184,8.753H23.436Z"/>
</svg>
